<svg width="90" height="131" viewBox="0 0 165 131" fill="none" xmlns="http://www.w3.org/2000/svg">
<path d="M54.2 48.32C54.2 48.4267 54.16 48.56 54.08 48.72C54.0267 48.88 53.9333 48.96 53.8 48.96C53.56 48.96 53.32 48.9467 53.08 48.92C52.8667 48.8933 52.64 48.88 52.4 48.88C52 48.88 51.68 49.04 51.44 49.36C51.2 49.68 51.0133 50.0667 50.88 50.52C50.7733 50.9467 50.68 51.32 50.6 51.64C49.64 55.8533 48.7333 60.0933 47.88 64.36C47.0267 68.6267 46.1067 72.8667 45.12 77.08H41.64C40.6267 73.4267 39.5333 69.8133 38.36 66.24C37.1867 62.6667 36.0533 59.0667 34.96 55.44C33.76 59.0667 32.5467 62.6933 31.32 66.32C30.12 69.92 28.88 73.5067 27.6 77.08H24.48C24.1867 75.9067 23.92 74.7333 23.68 73.56C23.4667 72.3867 23.2267 71.2267 22.96 70.08L20.16 56.76C19.9467 55.72 19.7333 54.6667 19.52 53.6C19.3333 52.5067 19.0933 51.4533 18.8 50.44C18.5867 49.64 18.2267 49.1867 17.72 49.08C17.24 48.9733 16.6533 48.92 15.96 48.92C15.72 48.92 15.5733 48.84 15.52 48.68C15.4933 48.52 15.48 48.3467 15.48 48.16C15.48 47.84 15.6133 47.68 15.88 47.68C16.1733 47.68 16.4667 47.6933 16.76 47.72C17.08 47.7467 17.3867 47.7733 17.68 47.8C18.6933 47.8267 19.7067 47.84 20.72 47.84C21.7333 47.84 22.7467 47.84 23.76 47.84C24.2133 47.84 24.6667 47.8267 25.12 47.8C25.5733 47.7467 26.0133 47.72 26.44 47.72C26.6 47.72 26.72 47.7867 26.8 47.92C26.88 48.0533 26.92 48.1867 26.92 48.32C26.92 48.6667 26.76 48.84 26.44 48.84C26.12 48.84 25.7867 48.8267 25.44 48.8C25.12 48.7733 24.8 48.76 24.48 48.76C24.1333 48.76 23.8267 48.84 23.56 49C23.32 49.1333 23.2 49.4 23.2 49.8C23.2 49.9333 23.2 50.0667 23.2 50.2C23.2267 50.3333 23.2533 50.4667 23.28 50.6C23.52 51.8533 23.7467 53.1333 23.96 54.44C24.1733 55.72 24.4 56.9867 24.64 58.24C25.0933 60.6667 25.5467 63.0933 26 65.52C26.48 67.9467 26.9467 70.3733 27.4 72.8C28.3867 69.9467 29.3467 67.0933 30.28 64.24C31.24 61.3867 32.1867 58.5333 33.12 55.68C33.4933 54.5333 33.84 53.3867 34.16 52.24C34.48 51.0667 34.84 49.92 35.24 48.8C35.3467 48.5333 35.4533 48.3467 35.56 48.24C35.6667 48.1067 35.8667 48.04 36.16 48.04C36.64 48.04 36.9733 48.24 37.16 48.64C37.3467 49.04 37.4933 49.48 37.6 49.96C37.7067 50.44 37.8133 50.8933 37.92 51.32C38.1867 52.2267 38.44 53.12 38.68 54C38.92 54.88 39.1733 55.7733 39.44 56.68C40.24 59.4267 41.08 62.1733 41.96 64.92C42.84 67.64 43.6667 70.3867 44.44 73.16C44.9467 71 45.4133 68.84 45.84 66.68C46.2933 64.4933 46.7333 62.3067 47.16 60.12C47.4533 58.7333 47.7067 57.3467 47.92 55.96C48.16 54.5467 48.3867 53.1467 48.6 51.76C48.6533 51.3867 48.6933 51.0133 48.72 50.64C48.7733 50.2667 48.8 49.8933 48.8 49.52C48.8 49.1467 48.6267 48.92 48.28 48.84C47.96 48.7333 47.6533 48.68 47.36 48.68C47.0133 48.68 46.6667 48.6933 46.32 48.72C45.9733 48.7467 45.6267 48.76 45.28 48.76C45.0933 48.76 44.9733 48.72 44.92 48.64C44.8933 48.5333 44.88 48.4267 44.88 48.32C44.88 47.9467 45.0267 47.76 45.32 47.76C46.1733 47.76 47.0267 47.7867 47.88 47.84C48.7333 47.8667 49.5867 47.88 50.44 47.88C51.0267 47.88 51.6 47.8667 52.16 47.84C52.72 47.7867 53.2933 47.76 53.88 47.76C54.0133 47.76 54.0933 47.8267 54.12 47.96C54.1733 48.0933 54.2 48.2133 54.2 48.32ZM64.8 74.08C64.8 74.8267 64.52 75.4533 63.96 75.96C63.4 76.4667 62.7467 76.72 62 76.72C61.2533 76.72 60.6 76.4667 60.04 75.96C59.48 75.4533 59.2 74.8267 59.2 74.08C59.2 73.3067 59.48 72.6667 60.04 72.16C60.6 71.6533 61.2533 71.4 62 71.4C62.7467 71.4 63.4 71.6533 63.96 72.16C64.52 72.6667 64.8 73.3067 64.8 74.08ZM88.1844 65.12C87.331 62.72 86.4777 60.32 85.6244 57.92C84.771 55.4933 83.9177 53.08 83.0644 50.68C82.2377 53.08 81.3977 55.48 80.5444 57.88C79.691 60.28 78.851 62.6933 78.0244 65.12H88.1844ZM99.4644 76.4C99.4644 76.56 99.4377 76.7067 99.3844 76.84C99.3577 76.9467 99.2644 77 99.1044 77C98.9177 77 98.451 76.9867 97.7044 76.96C96.9844 76.9333 96.3577 76.92 95.8244 76.92C94.9977 76.92 94.171 76.92 93.3444 76.92C92.5444 76.92 91.731 76.9467 90.9044 77C90.4777 77.0267 90.0377 77.04 89.5844 77.04C89.1577 77.0667 88.731 77.08 88.3044 77.08C88.171 77.08 88.0777 77.04 88.0244 76.96C87.9977 76.8533 87.9844 76.7467 87.9844 76.64L88.0244 76.32C88.0244 76.24 88.051 76.16 88.1044 76.08C88.1577 75.9733 88.2377 75.92 88.3444 75.92H90.3044C90.5444 75.92 90.811 75.8667 91.1044 75.76C91.4244 75.6533 91.5844 75.4533 91.5844 75.16C91.5844 75.08 91.491 74.7733 91.3044 74.24C91.1177 73.68 90.891 73.0133 90.6244 72.24C90.3577 71.44 90.0777 70.64 89.7844 69.84C89.491 69.04 89.2377 68.3333 89.0244 67.72C88.811 67.08 88.6644 66.6667 88.5844 66.48H77.6644C77.5844 66.72 77.4244 67.16 77.1844 67.8C76.9444 68.4133 76.6777 69.12 76.3844 69.92C76.1177 70.72 75.8377 71.5067 75.5444 72.28C75.2777 73.0533 75.051 73.72 74.8644 74.28C74.7044 74.8133 74.6244 75.1467 74.6244 75.28C74.6244 75.6533 74.8244 75.8933 75.2244 76C75.6244 76.1067 75.9577 76.16 76.2244 76.16C76.491 76.16 76.731 76.16 76.9444 76.16C77.1577 76.16 77.331 76.1467 77.4644 76.12C77.5177 76.12 77.611 76.12 77.7444 76.12C77.9044 76.0933 77.9977 76.08 78.0244 76.08C78.1844 76.08 78.2777 76.1733 78.3044 76.36C78.3577 76.5467 78.371 76.6933 78.3444 76.8C78.3177 76.9067 78.251 76.9733 78.1444 77C78.0644 77 77.971 77 77.8644 77C77.091 77 76.3044 76.9867 75.5044 76.96C74.7044 76.9333 73.9177 76.92 73.1444 76.92C72.5577 76.92 71.9844 76.9333 71.4244 76.96C70.8644 76.9867 70.291 77 69.7044 77C69.4644 77 69.3444 76.8667 69.3444 76.6C69.3444 76.2267 69.531 76.04 69.9044 76.04C70.0377 76.04 70.1977 76.0533 70.3844 76.08C70.571 76.08 70.771 76.08 70.9844 76.08C71.2777 76.08 71.571 76 71.8644 75.84C72.1844 75.6533 72.451 75.3333 72.6644 74.88C72.7977 74.64 73.0644 74 73.4644 72.96C73.8644 71.92 74.3577 70.6267 74.9444 69.08C75.531 67.5067 76.1444 65.8267 76.7844 64.04C77.451 62.2267 78.1044 60.4267 78.7444 58.64C79.3844 56.8533 79.9577 55.2 80.4644 53.68C80.9977 52.16 81.4244 50.9067 81.7444 49.92C82.0644 48.9067 82.2244 48.3067 82.2244 48.12C82.2244 48.0667 82.1844 48 82.1044 47.92C82.0244 47.8133 81.9844 47.7467 81.9844 47.72C81.9844 47.6133 82.0244 47.5467 82.1044 47.52C82.371 47.4667 82.651 47.4267 82.9444 47.4C83.2377 47.3733 83.5177 47.3467 83.7844 47.32C84.131 47.2667 84.4777 47.2267 84.8244 47.2C85.171 47.1467 85.5177 47.1067 85.8644 47.08L96.2244 75.08C96.331 75.3467 96.531 75.56 96.8244 75.72C97.1444 75.8533 97.4377 75.92 97.7044 75.92C97.9444 75.92 98.1844 75.92 98.4244 75.92C98.691 75.8933 98.9577 75.88 99.2244 75.88C99.331 75.88 99.3977 75.9467 99.4244 76.08C99.451 76.2133 99.4644 76.32 99.4644 76.4ZM109.761 74.08C109.761 74.8267 109.481 75.4533 108.921 75.96C108.361 76.4667 107.708 76.72 106.961 76.72C106.214 76.72 105.561 76.4667 105.001 75.96C104.441 75.4533 104.161 74.8267 104.161 74.08C104.161 73.3067 104.441 72.6667 105.001 72.16C105.561 71.6533 106.214 71.4 106.961 71.4C107.708 71.4 108.361 71.6533 108.921 72.16C109.481 72.6667 109.761 73.3067 109.761 74.08ZM136.185 69.48C136.185 71 135.839 72.2667 135.145 73.28C134.452 74.2933 133.532 75.1067 132.385 75.72C131.265 76.3067 130.039 76.7333 128.705 77C127.399 77.24 126.119 77.36 124.865 77.36C123.239 77.36 121.705 77.1067 120.265 76.6C119.679 76.3867 119.105 76.16 118.545 75.92C117.985 75.6533 117.399 75.44 116.785 75.28C116.679 74.4267 116.492 73.4933 116.225 72.48C115.985 71.4667 115.865 70.5467 115.865 69.72C115.865 69.3467 115.919 69.0667 116.025 68.88C116.159 68.6667 116.439 68.56 116.865 68.56C117.239 68.56 117.479 68.6533 117.585 68.84C117.692 69 117.772 69.2267 117.825 69.52C117.932 69.8933 118.025 70.2667 118.105 70.64C118.185 70.9867 118.279 71.3467 118.385 71.72C118.919 73.32 119.705 74.44 120.745 75.08C121.812 75.72 123.172 76.04 124.825 76.04C126.185 76.04 127.399 75.8533 128.465 75.48C129.559 75.08 130.412 74.44 131.025 73.56C131.665 72.68 131.985 71.5067 131.985 70.04C131.985 68.8933 131.599 67.8667 130.825 66.96C130.052 66.0267 129.199 65.2933 128.265 64.76C128.052 64.6267 127.825 64.5067 127.585 64.4C127.345 64.2933 127.105 64.1867 126.865 64.08C126.039 63.6533 125.199 63.2267 124.345 62.8C123.519 62.3733 122.679 61.96 121.825 61.56C120.999 61.1333 120.145 60.6 119.265 59.96C118.412 59.2933 117.679 58.5333 117.065 57.68C116.479 56.8267 116.185 55.8933 116.185 54.88C116.185 53.1733 116.639 51.76 117.545 50.64C118.452 49.52 119.612 48.68 121.025 48.12C122.439 47.56 123.905 47.28 125.425 47.28C126.519 47.28 127.492 47.4133 128.345 47.68C129.225 47.9467 130.092 48.2267 130.945 48.52C131.799 48.7867 132.732 48.9733 133.745 49.08C133.825 49.88 133.905 50.68 133.985 51.48C134.065 52.28 134.185 53.08 134.345 53.88C134.372 53.9867 134.385 54.0933 134.385 54.2C134.412 54.3067 134.425 54.4133 134.425 54.52C134.425 54.9467 134.279 55.2267 133.985 55.36C133.719 55.4667 133.412 55.52 133.065 55.52C132.719 55.52 132.532 55.4533 132.505 55.32C132.479 55.1867 132.439 54.9867 132.385 54.72C132.039 52.5867 131.305 50.9867 130.185 49.92C129.065 48.8267 127.385 48.28 125.145 48.28C123.492 48.28 122.199 48.72 121.265 49.6C120.359 50.48 119.905 51.76 119.905 53.44C119.905 54.56 120.199 55.5067 120.785 56.28C121.372 57.0533 122.145 57.7333 123.105 58.32C124.092 58.88 125.159 59.4133 126.305 59.92C127.479 60.4267 128.639 60.9467 129.785 61.48C130.932 62.0133 131.985 62.64 132.945 63.36C133.932 64.0533 134.719 64.8933 135.305 65.88C135.892 66.8667 136.185 68.0667 136.185 69.48Z" fill="#F5F5F5"/>
<path d="M164.5 65.5C164.5 101.297 127.901 130.5 82.5 130.5C37.0989 130.5 0.5 101.297 0.5 65.5C0.5 29.7029 37.0989 0.5 82.5 0.5C127.901 0.5 164.5 29.7029 164.5 65.5Z" stroke="#F5F5F5"/>
</svg>
